<?xml version="1.0" standalone="no"?>
<!DOCTYPE svg PUBLIC "-//W3C//DTD SVG 20010904//EN"
 "http://www.w3.org/TR/2001/REC-SVG-20010904/DTD/svg10.dtd">
<svg version="1.0" xmlns="http://www.w3.org/2000/svg"
 width="243.000000pt" height="178.000000pt" viewBox="0 0 243.000000 178.000000"
 preserveAspectRatio="xMidYMid meet">

<g transform="translate(0.000000,178.000000) scale(0.100000,-0.100000)"
fill="#000000" stroke="none">
<path d="M150 895 l0 -775 303 2 302 3 3 128 3 127 -151 0 -150 0 0 645 0 645
-155 0 -155 0 0 -775z"/>
<path d="M1593 1558 c-4 -7 -10 -45 -13 -85 l-5 -72 -75 35 c-89 41 -124 42
-128 1 -3 -26 2 -30 102 -77 l106 -50 0 -45 c0 -25 -5 -45 -10 -45 -6 0 -29 9
-51 21 -56 28 -93 23 -97 -14 -3 -26 2 -30 77 -65 l81 -36 0 -88 c0 -48 -3
-88 -6 -88 -3 0 -25 14 -48 30 -35 25 -45 40 -56 83 -19 77 -27 89 -58 85 -21
-2 -28 -9 -30 -30 -2 -16 -6 -28 -8 -28 -3 0 -25 14 -49 30 l-44 31 -3 142
c-3 141 -3 142 -27 145 -13 2 -28 -1 -34 -7 -6 -6 -13 -58 -17 -116 l-5 -106
-65 46 c-75 53 -113 57 -118 13 -3 -23 7 -33 72 -79 42 -29 76 -56 76 -59 0
-4 -45 -42 -101 -84 -87 -68 -100 -81 -97 -104 2 -20 9 -28 28 -30 19 -2 53
18 134 83 60 47 110 85 113 85 5 0 113 -72 113 -76 0 -2 -22 -15 -50 -29 -39
-20 -50 -30 -50 -50 0 -45 30 -48 110 -10 l72 35 52 -37 c28 -20 55 -40 59
-44 5 -4 -16 -26 -47 -49 l-57 -43 -138 43 c-75 23 -146 41 -157 38 -14 -2
-19 -12 -19 -33 0 -29 3 -31 108 -66 59 -19 108 -39 108 -43 0 -12 -74 -65
-91 -66 -8 0 -63 18 -122 41 -122 46 -151 47 -156 7 -4 -30 10 -39 118 -78 36
-13 68 -26 73 -30 4 -3 -20 -25 -54 -49 -51 -36 -60 -47 -57 -69 5 -44 43 -40
115 12 l62 46 3 -113 c3 -110 3 -112 27 -115 43 -6 51 19 51 159 l0 127 51 37
c28 20 53 35 55 33 2 -3 8 -40 14 -84 15 -109 24 -126 58 -122 25 3 27 7 30
51 3 41 7 49 33 62 l29 16 0 -79 0 -79 -97 -60 c-88 -53 -98 -63 -98 -89 0
-46 35 -43 121 10 l74 46 0 -43 c0 -54 18 -80 51 -75 23 3 24 7 27 76 2 39 5
72 8 72 3 0 44 -27 92 -60 97 -68 135 -76 140 -28 3 23 -9 35 -117 109 l-121
83 0 69 c0 62 2 68 18 62 57 -24 71 -28 86 -22 12 5 16 16 14 34 -2 21 -15 33
-60 57 l-58 31 0 48 0 48 78 -55 c52 -37 76 -61 75 -73 -1 -10 -7 -57 -14
-104 -14 -99 -10 -119 26 -119 31 0 40 19 55 117 l12 73 44 -31 44 -30 0 -108
c0 -119 10 -145 51 -139 23 3 24 7 29 96 l5 93 65 -46 c75 -53 113 -57 118
-13 3 22 -7 33 -66 74 l-68 48 100 46 c95 43 101 48 101 75 0 46 -29 43 -161
-15 l-117 -50 -58 37 c-32 21 -59 41 -59 44 0 3 61 30 135 58 75 29 139 60
144 70 13 23 -5 51 -31 51 -12 0 -92 -27 -179 -61 l-157 -60 -69 48 -69 48 72
51 71 52 83 -20 c105 -25 134 -22 138 14 4 31 -15 44 -77 54 -23 4 -43 10 -46
14 -2 4 21 24 51 45 l56 39 76 -39 c137 -67 139 -68 162 -45 11 11 17 26 13
35 -3 9 -44 35 -91 59 l-85 43 57 43 c47 36 56 48 54 69 -5 40 -40 39 -98 -3
-28 -20 -52 -36 -55 -36 -3 0 -5 37 -5 83 0 94 -12 121 -51 115 -24 -3 -24 -3
-26 -132 l-1 -130 -54 -38 -53 -38 -5 37 c-4 31 -10 39 -29 41 -35 5 -51 -22
-51 -84 0 -56 -4 -61 -108 -133 l-33 -23 3 94 3 93 75 40 c68 36 75 43 75 70
0 40 -28 44 -94 11 -28 -14 -53 -26 -56 -26 -3 0 -5 21 -5 48 l1 47 107 66
c97 59 107 69 107 95 0 47 -34 43 -128 -15 l-82 -51 -5 77 c-5 75 -6 78 -32
81 -14 2 -30 -3 -35 -10z m-13 -830 c0 -51 -1 -54 -40 -76 l-40 -23 0 30 c0
16 -3 36 -6 44 -3 10 10 26 38 46 24 16 44 30 46 31 1 0 2 -24 2 -52z"/>
</g>
</svg>
