<?xml version="1.0" standalone="no"?>
<!DOCTYPE svg PUBLIC "-//W3C//DTD SVG 20010904//EN"
 "http://www.w3.org/TR/2001/REC-SVG-20010904/DTD/svg10.dtd">
<svg version="1.0" xmlns="http://www.w3.org/2000/svg"
 width="43.000000pt" height="56.000000pt" viewBox="0 0 43.000000 56.000000"
 preserveAspectRatio="xMidYMid meet">

<g transform="translate(0.000000,56.000000) scale(0.100000,-0.100000)"
fill="#000000" stroke="none">
<path d="M180 473 c-55 -8 -70 -14 -99 -39 -39 -32 -39 -40 -1 -59 29 -15 32
-15 57 5 33 26 87 26 113 0 27 -27 26 -34 -19 -83 -35 -39 -61 -77 -61 -91 0
-3 20 -6 44 -6 36 0 46 4 51 20 3 10 18 29 33 42 42 35 62 69 62 104 0 45 -41
92 -88 100 -20 3 -44 7 -52 8 -8 2 -26 1 -40 -1z"/>
<path d="M176 134 c-34 -34 -8 -84 44 -84 29 0 50 22 50 54 0 22 -28 46 -55
46 -13 0 -31 -7 -39 -16z"/>
</g>
</svg>
