<?xml version="1.0" standalone="no"?>
<!DOCTYPE svg PUBLIC "-//W3C//DTD SVG 20010904//EN"
 "http://www.w3.org/TR/2001/REC-SVG-20010904/DTD/svg10.dtd">
<svg version="1.0" xmlns="http://www.w3.org/2000/svg"
 width="135.000000pt" height="195.000000pt" viewBox="0 0 135.000000 195.000000"
 preserveAspectRatio="xMidYMid meet">

<g transform="translate(0.000000,195.000000) scale(0.100000,-0.100000)"
fill="#000000" stroke="none">
<path d="M647 1890 c-92 -16 -192 -51 -315 -112 -109 -54 -129 -69 -181 -127
-32 -36 -60 -74 -64 -84 -11 -29 9 -64 43 -76 42 -14 60 -4 100 59 86 134 326
240 544 240 80 0 91 -3 180 -45 131 -63 139 -75 144 -227 5 -134 8 -127 -90
-210 -41 -34 -61 -42 -140 -59 -51 -10 -113 -19 -138 -19 -54 0 -82 -17 -104
-64 -18 -38 -21 -127 -6 -172 5 -16 11 -154 12 -308 l4 -278 32 -29 c20 -18
43 -29 62 -29 72 0 100 90 82 263 -13 131 -28 210 -48 249 -19 37 -19 170 1
208 11 22 23 30 43 30 54 0 175 31 230 59 60 31 134 102 171 163 59 100 23
316 -73 433 -65 79 -234 145 -366 144 -41 -1 -97 -5 -123 -9z"/>
<path d="M672 220 c-25 -11 -41 -45 -34 -72 11 -45 86 -72 131 -48 28 15 45
64 31 90 -19 36 -78 49 -128 30z"/>
</g>
</svg>
